<svg xmlns="http://www.w3.org/2000/svg"  viewBox="0 0 100 100" width="600px" height="600px"><path d="M 31.011719 17.988281 C 23.831719 17.988281 18.011719 23.808281 18.011719 30.988281 L 18.011719 69.988281 C 18.011719 77.168281 23.831719 82.988281 31.011719 82.988281 L 70.011719 82.988281 C 77.190719 82.988281 83.011719 77.168281 83.011719 69.988281 L 83.011719 30.988281 C 83.011719 23.808281 77.191719 17.988281 70.011719 17.988281 L 31.011719 17.988281 z M 31.011719 19.988281 L 70.011719 19.988281 C 76.086719 19.988281 81.011719 24.913281 81.011719 30.988281 L 81.011719 69.988281 C 81.011719 76.063281 76.086719 80.988281 70.011719 80.988281 L 31.011719 80.988281 C 24.936719 80.988281 20.011719 76.063281 20.011719 69.988281 L 20.011719 30.988281 C 20.011719 24.913281 24.935719 19.988281 31.011719 19.988281 z M 33.847656 22.988281 C 27.862656 22.988281 23.011719 27.839219 23.011719 33.824219 L 23.011719 67.150391 C 23.011719 73.135391 27.862656 77.988281 33.847656 77.988281 L 67.173828 77.988281 C 73.158828 77.988281 78.011719 73.136391 78.011719 67.150391 L 78.011719 48.488281 C 78.011719 48.212281 77.787719 47.988281 77.511719 47.988281 C 77.235719 47.988281 77.011719 48.212281 77.011719 48.488281 L 77.011719 67.150391 C 77.011719 72.583391 72.606828 76.988281 67.173828 76.988281 L 33.849609 76.988281 C 28.416609 76.988281 24.011719 72.583391 24.011719 67.150391 L 24.011719 33.824219 C 24.011719 28.391219 28.414656 23.988281 33.847656 23.988281 L 67.511719 23.988281 C 67.787719 23.988281 68.011719 23.764281 68.011719 23.488281 C 68.011719 23.212281 67.787719 22.988281 67.511719 22.988281 L 33.847656 22.988281 z M 50.5 28.998047 C 49.965857 28.998047 49.430927 29.167909 48.984375 29.507812 L 29.408203 44.164062 L 29.40625 44.166016 C 29.042661 44.443125 28.934316 44.921549 29.060547 45.294922 C 29.186778 45.668295 29.564511 45.984375 30.021484 45.984375 L 33 45.984375 L 33 66.503906 C 33 67.877381 34.125015 69.001953 35.5 69.001953 L 65.5 69.001953 C 66.874229 69.001953 68 67.877683 68 66.503906 L 68 45.998047 L 70.978516 45.984375 C 71.435828 45.984375 71.813314 45.668265 71.939453 45.294922 C 72.065592 44.921579 71.956113 44.44079 71.591797 44.164062 L 71.589844 44.162109 L 68 41.476562 L 68 33 L 62 33 L 62 36.984375 L 52.015625 29.507812 C 51.569073 29.16791 51.034143 28.998047 50.5 28.998047 z M 50.5 29.996094 C 50.819857 29.996094 51.138755 30.099591 51.408203 30.304688 L 51.410156 30.304688 L 63 38.980469 L 63 34 L 67 34 L 67 41.976562 L 70.988281 44.960938 C 71.014971 44.981207 70.996588 44.961703 70.992188 44.974609 C 70.987787 44.987519 71.012206 44.984375 70.978516 44.984375 L 67 45.001953 L 67 66.503906 C 67 67.33613 66.333771 68.001953 65.5 68.001953 L 35.5 68.001953 C 34.664985 68.001953 34 67.336432 34 66.503906 L 34 44.984375 L 30.021484 44.984375 C 29.987454 44.984375 30.012083 44.987309 30.007812 44.974609 C 30.003512 44.961979 29.986222 44.981807 30.013672 44.960938 L 49.589844 30.304688 L 49.591797 30.304688 C 49.861156 30.099623 50.180143 29.996094 50.5 29.996094 z M 50.498047 32 C 50.166514 32 49.836389 32.106116 49.560547 32.318359 L 49.558594 32.320312 L 36.599609 42.548828 C 36.222889 42.838043 36.001953 43.286116 36.001953 43.759766 L 36.017578 64.472656 C 36.01762 65.31291 36.712669 66 37.552734 66 L 63.460938 66 C 64.301535 66 64.997571 65.310566 64.996094 64.46875 L 64.996094 43.759766 C 64.996094 43.286116 64.774502 42.83754 64.398438 42.548828 L 51.439453 32.320312 L 51.4375 32.318359 C 51.161705 32.106163 50.829579 32 50.498047 32 z M 50.498047 33 C 50.612821 33.00011 50.727486 33.036163 50.824219 33.109375 L 63.787109 43.339844 L 63.789062 43.341797 C 63.920997 43.443085 63.996094 43.595416 63.996094 43.759766 L 63.996094 64.470703 C 63.996523 64.768887 63.76634 65 63.460938 65 L 37.552734 65 C 37.2488 65 37.017578 64.768356 37.017578 64.472656 L 37.001953 43.759766 C 37.001953 43.595416 37.077703 43.442582 37.208984 43.341797 L 37.210938 43.339844 L 50.169922 33.109375 L 50.171875 33.109375 C 50.268389 33.035723 50.383273 32.99989 50.498047 33 z M 50.5 36 C 50.166542 36 49.834419 36.107374 49.556641 36.320312 L 49.554688 36.320312 L 39.605469 44.007812 C 39.227902 44.298363 39.005859 44.747846 39.005859 45.224609 L 39.017578 61.464844 C 39.017578 62.310677 39.718495 63.00049 40.5625 63.001953 L 60.451172 63.001953 C 61.296761 63.001953 61.998047 62.310677 61.998047 61.464844 L 61.998047 45.224609 C 61.998047 44.748765 61.775748 44.299719 61.398438 44.009766 L 61.396484 44.007812 L 51.445312 36.320312 C 51.167627 36.107421 50.833458 36 50.5 36 z M 77.511719 36.566406 C 77.235719 36.566406 77.011719 36.790406 77.011719 37.066406 L 77.011719 39.066406 C 77.011719 39.342406 77.235719 39.566406 77.511719 39.566406 C 77.787719 39.566406 78.011719 39.343406 78.011719 39.066406 L 78.011719 37.066406 C 78.011719 36.790406 77.787719 36.566406 77.511719 36.566406 z M 50.5 37 C 50.618358 37 50.736716 37.03722 50.835938 37.113281 L 60.787109 44.800781 L 60.787109 44.802734 C 60.920471 44.904839 60.998047 45.059373 60.998047 45.224609 L 60.998047 61.464844 C 60.998047 61.765011 60.761582 62.001953 60.451172 62.001953 L 40.564453 62.001953 L 40.5625 62.001953 C 40.253334 62.000553 40.017578 61.764465 40.017578 61.464844 L 40.017578 61.462891 L 40.005859 45.224609 C 40.005859 45.059373 40.082359 44.904232 40.216797 44.800781 L 50.164062 37.113281 C 50.263284 37.03722 50.381642 37 50.5 37 z M 50.498047 39.976562 C 50.160219 39.976562 49.823164 40.084102 49.541016 40.298828 L 49.539062 40.298828 L 42.611328 45.582031 L 42.609375 45.582031 C 42.229338 45.872562 42.003906 46.32298 42.003906 46.800781 L 42.013672 58.460938 C 42.013731 59.312458 42.725967 60 43.578125 60 L 57.429688 60 C 58.28186 60 58.994141 59.310506 58.994141 58.458984 L 58.994141 46.800781 C 58.994141 46.32298 58.767812 45.871898 58.386719 45.582031 L 51.455078 40.298828 C 51.17293 40.084102 50.835875 39.976562 50.498047 39.976562 z M 77.511719 40.566406 C 77.235719 40.566406 77.011719 40.790406 77.011719 41.066406 L 77.011719 45.066406 C 77.011719 45.342406 77.235719 45.566406 77.511719 45.566406 C 77.787719 45.566406 78.011719 45.343406 78.011719 45.066406 L 78.011719 41.066406 C 78.011719 40.790406 77.787719 40.566406 77.511719 40.566406 z M 50.498047 40.978516 C 50.622402 40.978516 50.746758 41.017429 50.849609 41.095703 L 50.849609 41.09375 L 57.78125 46.376953 L 57.78125 46.378906 C 57.918157 46.48304 57.994141 46.636583 57.994141 46.800781 L 57.994141 58.458984 C 57.994141 58.757463 57.753514 59 57.429688 59 L 43.578125 59 C 43.252283 59 43.013672 58.759415 43.013672 58.460938 L 43.013672 58.458984 L 43.003906 46.800781 C 43.003906 46.636583 43.078836 46.482423 43.216797 46.376953 L 50.146484 41.09375 L 50.146484 41.095703 C 50.249336 41.017429 50.373691 40.978516 50.498047 40.978516 z M 50.494141 44 C 50.151401 44 49.810257 44.106809 49.521484 44.320312 L 45.638672 47.189453 C 45.24526 47.481246 45.007813 47.940101 45.007812 48.429688 L 45.011719 55.441406 C 45.013219 56.307349 45.749379 56.998436 46.619141 56.998047 L 54.378906 56.998047 C 55.248499 56.998047 55.986328 56.307074 55.986328 55.439453 L 55.986328 48.431641 C 55.986328 47.942055 55.74629 47.482726 55.353516 47.191406 L 51.46875 44.320312 C 51.179978 44.106809 50.83688 44 50.494141 44 z M 50.494141 45.001953 C 50.628968 45.001953 50.764772 45.043503 50.875 45.125 L 54.757812 47.994141 C 54.907038 48.104821 54.986328 48.265226 54.986328 48.431641 L 54.986328 55.439453 C 54.986328 55.741832 54.731314 55.998047 54.378906 55.998047 L 46.619141 55.998047 C 46.26575 55.998624 46.012237 55.742865 46.011719 55.439453 L 46.007812 48.429688 C 46.007812 48.263272 46.085792 48.102395 46.234375 47.992188 L 50.115234 45.125 C 50.225462 45.043503 50.359313 45.001953 50.494141 45.001953 z"/></svg>